<?xml version="1.0" encoding="UTF-8"?>
<svg width="43px" height="60px" viewBox="0 0 43 60" version="1.1" xmlns="http://www.w3.org/2000/svg" xmlns:xlink="http://www.w3.org/1999/xlink">
    <!-- Generator: Sketch 45.2 (43514) - http://www.bohemiancoding.com/sketch -->
    <title>scroll_icon</title>
    <desc>Created with Sketch.</desc>
    <defs></defs>
    <g id="Page-1" stroke="none" stroke-width="1" fill="none" fill-rule="evenodd">
        <g id="Desktop-HD" transform="translate(-699.000000, -816.000000)" fill-rule="nonzero" fill="#FFFFFF">
            <g id="Group" transform="translate(699.000000, 816.000000)">
                <g id="Group-15">
                    <path d="M21.2256572,5.5 C15.854325,5.5 11.5,9.85432503 11.5,15.2256572 L11.5,28.0077286 C11.5,33.3790607 15.854325,37.7333858 21.2256572,37.7333858 C26.5969893,37.7333858 30.9513143,33.3790607 30.9513143,28.0077286 L30.9513143,15.2256572 C30.9513143,9.85432503 26.5969893,5.5 21.2256572,5.5 Z M21.2256572,4.5 C27.149274,4.5 31.9513143,9.30204028 31.9513143,15.2256572 L31.9513143,28.0077286 C31.9513143,33.9313455 27.149274,38.7333858 21.2256572,38.7333858 C15.3020403,38.7333858 10.5,33.9313455 10.5,28.0077286 L10.5,15.2256572 C10.5,9.30204028 15.3020403,4.5 21.2256572,4.5 Z" id="Rectangle-3"></path>
                    <path d="M21.2022409,10.6128286 C20.4324142,10.6128286 19.8083464,11.2368964 19.8083464,12.006723 L19.8083464,17.4674017 C19.8083464,18.2372284 20.4324142,18.8612962 21.2022409,18.8612962 C21.9720676,18.8612962 22.5961354,18.2372284 22.5961354,17.4674017 L22.5961354,12.006723 C22.5961354,11.2368964 21.9720676,10.6128286 21.2022409,10.6128286 Z M21.2022409,9.61282858 C22.5243523,9.61282858 23.5961354,10.6846116 23.5961354,12.006723 L23.5961354,17.4674017 C23.5961354,18.7895131 22.5243523,19.8612962 21.2022409,19.8612962 C19.8801295,19.8612962 18.8083464,18.7895131 18.8083464,17.4674017 L18.8083464,12.006723 C18.8083464,10.6846116 19.8801295,9.61282858 21.2022409,9.61282858 Z" id="Rectangle-3"></path>
                    <path d="M8.35355339,39.0814755 C8.15829124,38.8862133 7.84170876,38.8862133 7.64644661,39.0814755 C7.45118446,39.2767376 7.45118446,39.5933201 7.64644661,39.7885822 L21.4350288,53.5771645 L35.2236111,39.7885822 C35.4188732,39.5933201 35.4188732,39.2767376 35.2236111,39.0814755 C35.0283489,38.8862133 34.7117664,38.8862133 34.5165043,39.0814755 L21.4350288,52.1629509 L8.35355339,39.0814755 Z" id="Rectangle-4"></path>
                </g>
            </g>
        </g>
    </g>
</svg>