<?xml version="1.0" encoding="UTF-8"?>
<svg width="247px" height="504px" viewBox="0 0 247 504" version="1.1" xmlns="http://www.w3.org/2000/svg" xmlns:xlink="http://www.w3.org/1999/xlink">
    <!-- Generator: Sketch 45.2 (43514) - http://www.bohemiancoding.com/sketch -->
    <title>device_frame</title>
    <desc>Created with Sketch.</desc>
    <defs></defs>
    <g id="Page-1" stroke="none" stroke-width="1" fill="none" fill-rule="evenodd">
        <g id="Desktop-HD" transform="translate(-861.000000, -243.000000)">
            <g id="device" transform="translate(861.000000, 243.000000)">
                <path d="M246.590878,35.938514 L246.590878,108.254113 L246.590878,144.068626 L246.590878,467.698073 C246.590878,487.54628 230.501098,503.636587 210.653704,503.636587 L138.512274,503.636587 C138.512274,503.636587 136.449085,502.88251 135.053721,502.88251 L111.851458,502.88251 C110.327176,502.894994 108.532066,503.629096 108.51058,503.636587 L37.1816341,503.636587 C17.3349897,503.636587 1.24620847,487.54628 1.24620847,467.698073 L1.00111414,190.27312 C0.706051553,189.978481 0.231602898,188.921524 0,188.689808 L0,154.305142 C0.177887015,154.12711 0.946898579,153.127334 1.24620847,152.825703 L1.00111414,144.828741 C0.706051553,144.534101 0.231602898,143.477145 0,143.245428 L0,108.860763 C0.177887015,108.682731 0.946898579,107.682954 1.24620847,107.381323 L1.00111414,83.9033087 C0.706051553,83.6086693 0.231602898,82.5517129 0,82.3199965 L0,65.4139383 C0.177887015,65.2359062 0.946898579,64.2361298 1.24620847,63.934499 L1.24620847,35.938514 C1.24620847,16.090057 17.3349897,0 37.1816341,0 L210.653704,0 C230.501098,0 246.590878,16.090057 246.590878,35.938514 Z M38.4308407,2.49694393 C18.5841963,2.49694393 3.74462161,17.3387786 3.74462161,37.1869859 L3.74462161,466.449601 C3.74462161,486.297808 18.5841963,501.139643 38.4308407,501.139643 L209.404497,501.139643 C229.251891,501.139643 244.092465,486.297808 244.092465,466.449601 L244.092465,37.1869859 C244.092465,17.3387786 229.251891,2.49694393 209.404497,2.49694393 L38.4308407,2.49694393 Z M39.9301384,4.99388786 L207.905449,4.99388786 C227.752843,4.99388786 241.594052,18.8366953 241.594052,38.6851523 L241.594052,464.951434 C241.594052,484.799642 227.752843,498.642699 207.905449,498.642699 L39.9301384,498.642699 C20.0832442,498.642699 6.24278491,484.799642 6.24278491,464.951434 L6.24278491,38.6851523 C6.24278491,18.8366953 20.0832442,4.99388786 39.9301384,4.99388786 Z M124.920157,453.947403 C114.158492,453.947403 105.434533,462.666731 105.434533,473.426062 C105.434533,484.182897 114.158492,492.902225 124.920157,492.902225 C135.681822,492.902225 144.405781,484.182897 144.405781,473.426062 C144.405781,462.666731 135.681822,453.947403 124.920157,453.947403 Z M124.920157,455.695263 C134.715935,455.695263 142.657142,463.633048 142.657142,473.426062 C142.657142,483.216579 134.715935,491.154364 124.920157,491.154364 C115.124379,491.154364 107.183423,483.216579 107.183423,473.426062 C107.183423,463.633048 115.124379,455.695263 124.920157,455.695263 Z M146.06048,29.9303675 L102.112893,29.9303675 C100.728273,29.9303675 99.6017381,31.0492481 99.6017381,32.4245648 C99.6017381,33.7996318 100.728273,34.9185124 102.112893,34.9185124 L146.06048,34.9185124 C147.4451,34.9185124 148.571635,33.7996318 148.571635,32.4245648 C148.571635,31.0492481 147.4451,29.9303675 146.06048,29.9303675 Z M74.9528938,26.9679932 C72.0559838,26.9679932 69.7069757,29.3153702 69.7069757,32.2108264 C69.7069757,35.1062825 72.0559838,37.4536595 74.9528938,37.4536595 C77.8503035,37.4536595 80.1990617,35.1062825 80.1990617,32.2108264 C80.1990617,29.3153702 77.8503035,26.9679932 74.9528938,26.9679932 Z" id="Combined-Shape" fill="#FFFFFF"></path>
                <rect id="screen1" fill="#000000" x="14" y="58" width="219.110832" height="386.776614"></rect>
            </g>
        </g>
    </g>
</svg>