<?xml version="1.0" encoding="UTF-8"?>
<svg width="53px" height="53px" viewBox="0 0 53 53" version="1.1" xmlns="http://www.w3.org/2000/svg" xmlns:xlink="http://www.w3.org/1999/xlink">
    <!-- Generator: Sketch 45.2 (43514) - http://www.bohemiancoding.com/sketch -->
    <title>bender_logo_nav</title>
    <desc>Created with Sketch.</desc>
    <defs></defs>
    <g id="Page-1" stroke="none" stroke-width="1" fill="none" fill-rule="evenodd">
        <g id="Desktop-HD" transform="translate(-250.000000, -28.000000)" fill="#535353">
            <g id="bender_logo_nav" transform="translate(250.000000, 28.000000)">
                <path d="M7,0 L45.8516201,0 L45.8516201,2.66453526e-15 C49.7176133,1.95436382e-15 52.8516201,3.13400675 52.8516201,7 L52.8516201,45.8579686 C52.8516201,49.7239619 49.7176133,52.8579686 45.8516201,52.8579686 L7,52.8579686 L7,52.8579686 C3.13400675,52.8579686 2.97833355e-14,49.7239619 2.93098879e-14,45.8579686 L2.84217094e-14,7 L2.93098879e-14,7 C2.88364402e-14,3.13400675 3.13400675,1.59834986e-15 7,8.8817842e-16 L7,0 Z M22.5229212,15.7784981 L13.5198259,15.7784981 L13.5198259,0 L7.82986964,0 L7.82986964,52.8579686 L10.134662,52.8579686 L15.7525935,47.2637738 C15.7525935,47.2637738 15.7525935,52.8579686 18.5615593,52.8579686 L25.4045657,52.8579686 C30.8718032,52.8579686 33.2546108,47.9197299 33.2546108,42.1716222 L33.2546108,26.3931241 C33.2546108,15.7784981 22.5229212,15.7784981 22.5229212,15.7784981 Z M27.5646546,42.1716222 C27.5646546,42.1716222 27.5646546,47.2637738 22.5229212,47.2637738 L18.5615593,47.2637738 C18.5615593,47.2637738 13.5198259,47.2637738 13.5198259,42.1716222 L13.5198259,21.3726929 L22.5229212,21.3726929 C22.5229212,21.3726929 27.5646546,21.3726929 27.5646546,26.3931241 L27.5646546,42.1716222 Z" id="Combined-Shape"></path>
            </g>
        </g>
    </g>
</svg>