<?xml version="1.0" encoding="UTF-8"?>
<svg width="165px" height="48px" viewBox="0 0 165 48" version="1.1" xmlns="http://www.w3.org/2000/svg" xmlns:xlink="http://www.w3.org/1999/xlink">
    <!-- Generator: Sketch 45.2 (43514) - http://www.bohemiancoding.com/sketch -->
    <title>xmartlabs_logo</title>
    <desc>Created with Sketch.</desc>
    <defs></defs>
    <g id="Page-1" stroke="none" stroke-width="1" fill="none" fill-rule="evenodd">
        <g id="Desktop-HD" transform="translate(-641.000000, -6977.000000)" fill="#FFFFFF">
            <g id="Logo" transform="translate(641.000000, 6976.583996)">
                <polygon id="bg" points="5.39566201 47.7399225 46.7399225 47.7399225 46.7399225 1 0 1 0 42.1188791 25.538905 16.5799742 7.78998709 16.5799742 7.78998709 8.78998709 38.9499354 8.78998709 38.9499354 39.9499354 31.1599484 39.9499354 31.1599484 21.9756362"></polygon>
                <path d="M54.9771878,1 L60.9315788,1 L64.593669,6.53729714 L68.2837141,1 L74.3219698,1 L67.8643908,10.3215806 L74.8810675,20.5057553 L68.7589472,20.5057553 L64.593669,14.4675971 L60.5122555,20.5057553 L54.5299096,20.5057553 L61.4906765,10.5720111 L54.9771878,1 Z M78.0504526,1 L83.6134751,1 L89.2883173,12.4085016 L94.9352045,1 L100.498227,1 L100.498227,20.5057553 L95.9695353,20.5057553 L95.9415804,8.15118274 L90.9376556,18.5579623 L87.6389789,18.5579623 L82.6070992,8.15118274 L82.6070992,20.5057553 L78.0504526,20.5057553 L78.0504526,1 Z M119.797582,20.5057553 L118.455747,17.0553791 L109.985417,17.0553791 L108.615627,20.5057553 L103.360108,20.5057553 L111.774529,1 L117.030048,1 L125.248785,20.5057553 L119.797582,20.5057553 Z M111.522935,13.1597932 L116.946184,13.1597932 L114.262514,6.20338978 L111.522935,13.1597932 Z M139.879674,20.5057553 L137.028275,15.1075862 L133.226411,15.1075862 L133.226411,20.5057553 L128.110666,20.5057553 L128.110666,1 L136.916456,1 C139.506955,1 141.515028,1.59824471 142.940734,2.79475209 C144.36644,3.99125946 145.079283,5.67469226 145.079283,7.84510099 C145.079283,9.31059064 144.7811,10.5766434 144.184727,11.6432973 C143.588353,12.7099511 142.72176,13.5400736 141.584922,14.1336897 L145.666336,20.5057553 L139.879674,20.5057553 Z M133.226411,11.0450466 L136.944411,11.0450466 C137.988065,11.0450466 138.79409,10.7853434 139.362508,10.2659294 C139.930927,9.74651533 140.215133,8.99523127 140.215133,8.01205467 C140.215133,7.06597907 139.930927,6.33788279 139.362508,5.82774399 C138.79409,5.31760519 137.988065,5.06253961 136.944411,5.06253961 L133.226411,5.06253961 L133.226411,11.0450466 Z M147.74548,1 L164.546367,1 L164.546367,5.20166768 L158.675841,5.20166768 L158.675841,20.5057553 L153.560097,20.5057553 L153.560097,5.20166768 L147.74548,5.20166768 L147.74548,1 Z M54.9563839,28.375719 L60.0721283,28.375719 L60.0721283,43.5406785 L68.3747298,43.5406785 L68.3747298,47.8814743 L54.9563839,47.8814743 L54.9563839,28.375719 Z M86.2763404,47.8814743 L84.9345058,44.4310982 L76.464175,44.4310982 L75.0943855,47.8814743 L69.8388668,47.8814743 L78.2532878,28.375719 L83.5088066,28.375719 L91.7275434,47.8814743 L86.2763404,47.8814743 Z M107.742199,28.9739697 C108.832445,29.3728055 109.675743,29.9432249 110.272116,30.685245 C110.86849,31.427265 111.166673,32.2991256 111.166673,33.3008527 C111.166673,34.3211303 110.863831,35.211541 110.258139,35.9721116 C109.652447,36.7326822 108.827786,37.2520884 107.784132,37.530346 C109.032789,37.7715025 110.01586,38.3372843 110.733372,39.2277084 C111.450884,40.1181325 111.809635,41.1940455 111.809635,42.4554796 C111.809635,43.5499592 111.502135,44.5099333 110.887124,45.3354306 C110.272113,46.160928 109.396202,46.7916356 108.259365,47.2275724 C107.122527,47.6635092 105.790024,47.8814743 104.261816,47.8814743 L94.5894248,47.8814743 L94.5894248,28.375719 L103.898402,28.375719 C105.3707,28.375719 106.651953,28.5751339 107.742199,28.9739697 Z M125.867449,32.7443404 C124.684019,32.3547798 123.691631,32.1600025 122.890253,32.1600025 C122.256606,32.1600025 121.758082,32.2759414 121.394667,32.5078227 C121.031252,32.7397039 120.849547,33.0782455 120.849547,33.5234576 C120.849547,33.9501191 121.007956,34.3072109 121.32478,34.5947437 C121.641603,34.8822765 122.032968,35.1141543 122.498885,35.290384 C122.964802,35.4666138 123.654349,35.6938541 124.567547,35.9721116 C125.928025,36.3616721 127.050868,36.7512268 127.936111,37.1407874 C128.821353,37.5303479 129.580787,38.1285926 130.214434,38.9355395 C130.848081,39.7424863 131.1649,40.7952115 131.1649,42.0937466 C131.1649,43.3922818 130.820127,44.5006576 130.130569,45.4189075 C129.441012,46.3371573 128.495214,47.0281531 127.293148,47.4919157 C126.091082,47.9556782 124.75392,48.187556 123.281622,48.187556 C121.66023,48.187556 120.043522,47.9046651 118.431449,47.3388748 C116.819376,46.7730845 115.426304,45.9986127 114.252193,45.0154361 L116.23699,41.0363733 C117.224735,41.9082469 118.394169,42.6224305 119.745329,43.1789456 C121.096488,43.7354606 122.293877,44.013714 123.337532,44.013714 C124.101636,44.013714 124.70266,43.8745873 125.140622,43.5963298 C125.578584,43.3180722 125.797562,42.9099673 125.797562,42.3720028 C125.797562,41.9267907 125.634493,41.5557862 125.308351,41.2589782 C124.982209,40.9621702 124.572208,40.7256548 124.078336,40.5494251 C123.584464,40.3731953 122.890258,40.1645053 121.995697,39.9233487 C120.653856,39.5523387 119.54499,39.1766967 118.669065,38.7964114 C117.793141,38.4161261 117.043026,37.8410692 116.418697,37.0712233 C115.794368,36.3013775 115.482208,35.2764776 115.482208,33.996493 C115.482208,32.7907104 115.803686,31.7333476 116.446652,30.824373 C117.089618,29.9153984 118.002801,29.2151275 119.186231,28.7235392 C120.36966,28.2319509 121.744095,27.9861604 123.309577,27.9861604 C124.725965,27.9861604 126.123695,28.1855753 127.50281,28.5844111 C128.881925,28.9832469 130.093291,29.5165659 131.136945,30.1843839 L129.208058,34.2469235 C128.164404,33.634757 127.050878,33.1339009 125.867449,32.7443404 Z M105.296147,35.6242914 C105.706154,35.2811071 105.911154,34.8034389 105.911154,34.1912723 C105.911154,33.5976562 105.706154,33.1385382 105.296147,32.8139044 C104.88614,32.4892706 104.327047,32.3362313 103.618853,32.3547818 L99.7051691,32.3547818 L99.7051691,36.1390653 L103.618853,36.1390653 C104.327047,36.1390653 104.88614,35.9674757 105.296147,35.6242914 Z M78.0016938,40.5355122 L83.4249419,40.5355122 L80.7412728,33.5791088 L78.0016938,40.5355122 Z M105.743425,43.3737249 C106.265252,43.0027148 106.526162,42.4833085 106.526162,41.8154905 C106.526162,41.2033239 106.265252,40.7163805 105.743425,40.3546458 C105.221598,39.992911 104.513414,39.8213214 103.618853,39.8398719 L99.7051691,39.8398719 L99.7051691,43.9302371 L103.618853,43.9302371 C104.513414,43.9302371 105.221598,43.7447349 105.743425,43.3737249 Z" id="type"></path>
            </g>
        </g>
    </g>
</svg>