<?xml version="1.0" encoding="UTF-8"?>
<svg width="525px" height="934px" viewBox="0 0 525 934" version="1.1" xmlns="http://www.w3.org/2000/svg" xmlns:xlink="http://www.w3.org/1999/xlink">
    <!-- Generator: Sketch 45.2 (43514) - http://www.bohemiancoding.com/sketch -->
    <title>Group 16</title>
    <desc>Created with Sketch.</desc>
    <defs></defs>
    <g id="Page-1" stroke="none" stroke-width="1" fill="none" fill-rule="evenodd">
        <g id="Group-16">
            <rect id="Rectangle-15" fill="#000000" x="0" y="0" width="524.68011" height="933.231023"></rect>
            <path d="M134.854512,405.709881 L264.863236,284 L427.153079,405.709881 L396.125804,526.566832 L265.256897,649.036998 L104,526.566832 L134.854512,405.709881 Z M139.107954,405.593168 L191.183516,444.792681 L233.165685,405.593168 L262.50787,290.379997 L139.107954,405.593168 Z M137.418578,408.222514 L108.071118,522.298884 L188.845623,447.063974 L137.418578,408.222514 Z M108.154202,526.547709 L264.436936,644.566944 L294.372579,526.547709 L191.365179,448.846655 L108.154202,526.547709 Z M266.205729,288.822627 L235.963072,406.730273 L339.251354,483.957793 L422.618251,405.963207 L266.205729,288.822627 Z M193.62977,446.869634 L296.189177,524.077246 L337.126482,486.104198 L234.075064,408.977844 L193.62977,446.869634 Z M268.117708,642.580913 L391.823858,527.175171 L339.574758,487.698868 L297.48929,527.175171 L268.117708,642.580913 Z M341.86255,485.829955 L393.753306,524.330768 L423.154141,409.664466 L341.86255,485.829955 Z" id="Combined-Shape" fill="#FFFFFF"></path>
        </g>
    </g>
</svg>