<?xml version="1.0" encoding="UTF-8"?>
<svg width="274px" height="88px" viewBox="0 0 274 88" version="1.1" xmlns="http://www.w3.org/2000/svg" xmlns:xlink="http://www.w3.org/1999/xlink">
    <!-- Generator: Sketch 45.2 (43514) - http://www.bohemiancoding.com/sketch -->
    <title>bender_logo</title>
    <desc>Created with Sketch.</desc>
    <defs></defs>
    <g id="Page-1" stroke="none" stroke-width="1" fill="none" fill-rule="evenodd">
        <g id="Desktop-HD" transform="translate(-250.000000, -293.000000)" fill="#30C3C4">
            <g id="logo" transform="translate(250.000000, 293.000000)">
                <path d="M24.1573759,26.0552015 C24.1573759,26.0552015 41.8017338,26.0552015 41.8017338,43.5832461 L41.8017338,69.6384475 C41.8017338,82.7338172 34.4763929,87.2849249 28.4140327,87.2849249 L17.6443579,87.2849249 C13.026036,87.2849249 13.026036,78.0471716 13.026036,78.0471716 L3.7893923,87.2849249 L0,87.2849249 L0,7.10542736e-15 L9.35506225,7.10542736e-15 L9.35506225,26.0552015 L24.1573759,26.0552015 Z M32.4466716,69.6384475 L32.4466716,43.5832461 C32.4466716,35.2929547 24.1573759,35.2929547 24.1573759,35.2929547 L9.35506225,35.2929547 L9.35506225,69.6384475 C9.35506225,78.0471716 17.6443579,78.0471716 17.6443579,78.0471716 L24.1573759,78.0471716 C32.4466716,78.0471716 32.4466716,69.6384475 32.4466716,69.6384475 Z M165.704521,26.0552015 C165.704521,26.0552015 148.060163,26.0552015 148.060163,43.5832461 L148.060163,69.6384475 C148.060163,82.7338172 155.385504,87.2849249 161.447864,87.2849249 L172.217539,87.2849249 C176.835861,87.2849249 176.835861,78.0471716 176.835861,78.0471716 L186.072505,87.2849249 L189.861897,87.2849249 L189.861897,7.10542736e-15 L180.506835,7.10542736e-15 L180.506835,26.0552015 L165.704521,26.0552015 Z M157.415225,69.6384475 L157.415225,43.5832461 C157.415225,35.2929547 165.704521,35.2929547 165.704521,35.2929547 L180.506835,35.2929547 L180.506835,69.6384475 C180.506835,78.0471716 172.217539,78.0471716 172.217539,78.0471716 L165.704521,78.0471716 C157.415225,78.0471716 157.415225,69.6384475 157.415225,69.6384475 Z M89.2927047,43.5832461 C89.2927047,43.5832461 89.2927047,61.3481562 71.5299283,61.3481562 L56.7276147,61.3481562 L56.7276147,69.6384475 C56.7276147,69.6384475 56.7276147,78.0471716 65.1353288,78.0471716 L89.2927047,78.0471716 L89.2927047,87.2849249 L65.1353288,87.2849249 C65.1353288,87.2849249 47.3725524,87.2849249 47.3725524,69.6384475 L47.3725524,43.5832461 C47.3725524,43.5832461 47.3725524,26.0552015 65.1353288,26.0552015 L71.5299283,26.0552015 C71.5299283,26.0552015 89.2927047,26.0552015 89.2927047,43.5832461 Z M56.7276147,51.9919702 L71.5299283,51.9919702 C71.5299283,51.9919702 79.9376425,51.9919702 79.9376425,43.5832461 C79.9376425,35.2929547 71.5299283,35.2929547 71.5299283,35.2929547 L65.1353288,35.2929547 C65.1353288,35.2929547 56.7276147,35.2929547 56.7276147,43.5832461 L56.7276147,51.9919702 Z M140.130286,87.2849249 L130.775223,87.2849249 L130.775223,43.7016788 C130.775223,35.2929547 122.367509,35.2929547 122.367509,35.2929547 L115.97291,35.2929547 C107.565196,35.2929547 107.565196,43.7016788 107.565196,43.7016788 L107.565196,87.2849249 L98.2101334,87.2849249 L98.2101334,26.0552015 L102.117944,26.0552015 L111.236169,35.2929547 C111.236169,26.0552015 115.97291,26.0552015 115.97291,26.0552015 L122.367509,26.0552015 C122.367509,26.0552015 140.130286,25.818336 140.130286,43.3463806 L140.130286,87.2849249 Z M238.058688,43.5832461 C238.058688,43.5832461 238.058688,61.3481562 220.295912,61.3481562 L205.493598,61.3481562 L205.493598,69.6384475 C205.493598,69.6384475 205.493598,78.0471716 213.901313,78.0471716 L238.058688,78.0471716 L238.058688,87.2849249 L213.901313,87.2849249 C213.901313,87.2849249 196.138536,87.2849249 196.138536,69.6384475 L196.138536,43.5832461 C196.138536,43.5832461 196.138536,26.0552015 213.901313,26.0552015 L220.295912,26.0552015 C220.295912,26.0552015 238.058688,26.0552015 238.058688,43.5832461 Z M205.493598,51.9919702 L220.295912,51.9919702 C220.295912,51.9919702 228.703626,51.9919702 228.703626,43.5832461 C228.703626,35.2929547 220.295912,35.2929547 220.295912,35.2929547 L213.901313,35.2929547 C213.901313,35.2929547 205.493598,35.2929547 205.493598,43.5832461 L205.493598,51.9919702 Z M253.895877,43.5832461 L253.895877,78.0471716 L266.921913,78.0471716 L266.921913,87.2849249 L238.146215,87.2849249 L238.146215,78.0471716 L244.659233,78.0471716 L244.659233,26.0552015 L248.330207,26.0552015 L257.685269,35.174522 C257.685269,35.174522 257.685269,26.0552015 262.185173,26.0552015 L273.316512,26.0552015 L273.316512,35.2929547 L262.185173,35.2929547 C262.185173,35.2929547 253.895877,35.2929547 253.895877,43.5832461 Z" id="bender"></path>
            </g>
        </g>
    </g>
</svg>